<svg width="29" height="21" viewBox="0 0 29 21" fill="none" xmlns="http://www.w3.org/2000/svg">
<circle cx="14.5" cy="6.27976" r="2.94431" fill="white" stroke="#2B2DBA" stroke-width="1.5"/>
<circle cx="19.5801" cy="6.27976" r="2.94431" fill="white" stroke="#2B2DBA" stroke-width="1.5"/>
<circle cx="9.2783" cy="6.27976" r="2.94431" fill="white" stroke="#2B2DBA" stroke-width="1.5"/>
<mask id="path-4-inside-1_417:2796" fill="white">
<path fill-rule="evenodd" clip-rule="evenodd" d="M21.1051 17.3411C21.1064 17.2871 21.1071 17.233 21.1071 17.1788C21.1071 13.5297 18.1489 10.5715 14.4998 10.5715C10.8507 10.5715 7.89258 13.5297 7.89258 17.1788C7.89258 17.233 7.89323 17.2871 7.89453 17.3411H21.1051Z"/>
</mask>
<path fill-rule="evenodd" clip-rule="evenodd" d="M21.1051 17.3411C21.1064 17.2871 21.1071 17.233 21.1071 17.1788C21.1071 13.5297 18.1489 10.5715 14.4998 10.5715C10.8507 10.5715 7.89258 13.5297 7.89258 17.1788C7.89258 17.233 7.89323 17.2871 7.89453 17.3411H21.1051Z" fill="white"/>
<path d="M21.1051 17.3411V18.8411H22.5694L22.6047 17.3772L21.1051 17.3411ZM7.89453 17.3411L6.39497 17.3772L6.43026 18.8411H7.89453V17.3411ZM19.6071 17.1788C19.6071 17.221 19.6065 17.263 19.6055 17.3049L22.6047 17.3772C22.6063 17.3112 22.6071 17.2451 22.6071 17.1788H19.6071ZM14.4998 12.0715C17.3205 12.0715 19.6071 14.3581 19.6071 17.1788H22.6071C22.6071 12.7013 18.9773 9.07153 14.4998 9.07153V12.0715ZM9.39258 17.1788C9.39258 14.3581 11.6792 12.0715 14.4998 12.0715V9.07153C10.0223 9.07153 6.39258 12.7013 6.39258 17.1788H9.39258ZM9.3941 17.3049C9.39309 17.263 9.39258 17.221 9.39258 17.1788H6.39258C6.39258 17.2451 6.39338 17.3112 6.39497 17.3772L9.3941 17.3049ZM7.89453 18.8411H21.1051V15.8411H7.89453V18.8411Z" fill="#2B2DBA" mask="url(#path-4-inside-1_417:2796)"/>
<mask id="path-6-inside-2_417:2796" fill="white">
<path fill-rule="evenodd" clip-rule="evenodd" d="M26.1852 17.3413C26.1865 17.2874 26.1871 17.2333 26.1871 17.179C26.1871 13.5299 23.229 10.5718 19.5799 10.5718C15.9308 10.5718 12.9727 13.5299 12.9727 17.179C12.9727 17.2333 12.9733 17.2874 12.9746 17.3413H26.1852Z"/>
</mask>
<path fill-rule="evenodd" clip-rule="evenodd" d="M26.1852 17.3413C26.1865 17.2874 26.1871 17.2333 26.1871 17.179C26.1871 13.5299 23.229 10.5718 19.5799 10.5718C15.9308 10.5718 12.9727 13.5299 12.9727 17.179C12.9727 17.2333 12.9733 17.2874 12.9746 17.3413H26.1852Z" fill="white"/>
<path d="M26.1852 17.3413V18.8413H27.6494L27.6847 17.3775L26.1852 17.3413ZM12.9746 17.3413L11.475 17.3775L11.5103 18.8413H12.9746V17.3413ZM24.6871 17.179C24.6871 17.2212 24.6866 17.2633 24.6856 17.3051L27.6847 17.3775C27.6863 17.3115 27.6871 17.2453 27.6871 17.179H24.6871ZM19.5799 12.0718C22.4005 12.0718 24.6871 14.3584 24.6871 17.179H27.6871C27.6871 12.7015 24.0574 9.07178 19.5799 9.07178V12.0718ZM14.4727 17.179C14.4727 14.3584 16.7592 12.0718 19.5799 12.0718V9.07178C15.1024 9.07178 11.4727 12.7015 11.4727 17.179H14.4727ZM14.4742 17.3052C14.4732 17.2633 14.4727 17.2212 14.4727 17.179H11.4727C11.4727 17.2453 11.4735 17.3115 11.475 17.3775L14.4742 17.3052ZM12.9746 18.8413H26.1852V15.8413H12.9746V18.8413Z" fill="#2B2DBA" mask="url(#path-6-inside-2_417:2796)"/>
<mask id="path-8-inside-3_417:2796" fill="white">
<path fill-rule="evenodd" clip-rule="evenodd" d="M15.8834 17.3413C15.8847 17.2874 15.8854 17.2333 15.8854 17.179C15.8854 13.5299 12.9272 10.5718 9.27814 10.5718C5.62906 10.5718 2.6709 13.5299 2.6709 17.179C2.6709 17.2333 2.67155 17.2874 2.67285 17.3413H15.8834Z"/>
</mask>
<path fill-rule="evenodd" clip-rule="evenodd" d="M15.8834 17.3413C15.8847 17.2874 15.8854 17.2333 15.8854 17.179C15.8854 13.5299 12.9272 10.5718 9.27814 10.5718C5.62906 10.5718 2.6709 13.5299 2.6709 17.179C2.6709 17.2333 2.67155 17.2874 2.67285 17.3413H15.8834Z" fill="white"/>
<path d="M15.8834 17.3413V18.8413H17.3477L17.383 17.3775L15.8834 17.3413ZM2.67285 17.3413L1.17329 17.3775L1.20858 18.8413H2.67285V17.3413ZM14.3854 17.179C14.3854 17.2212 14.3849 17.2633 14.3839 17.3051L17.383 17.3775C17.3846 17.3115 17.3854 17.2453 17.3854 17.179H14.3854ZM9.27814 12.0718C12.0988 12.0718 14.3854 14.3584 14.3854 17.179H17.3854C17.3854 12.7015 13.7556 9.07178 9.27814 9.07178V12.0718ZM4.1709 17.179C4.1709 14.3584 6.45749 12.0718 9.27814 12.0718V9.07178C4.80063 9.07178 1.1709 12.7015 1.1709 17.179H4.1709ZM4.17242 17.3052C4.17141 17.2633 4.1709 17.2212 4.1709 17.179H1.1709C1.1709 17.2453 1.1717 17.3115 1.17329 17.3775L4.17242 17.3052ZM2.67285 18.8413H15.8834V15.8413H2.67285V18.8413Z" fill="#2B2DBA" mask="url(#path-8-inside-3_417:2796)"/>
</svg>
