<svg width="64" height="65" viewBox="0 0 64 65" fill="none" xmlns="http://www.w3.org/2000/svg">
<path d="M0 5.8479C0 3.08648 2.23858 0.8479 5 0.8479H59C61.7614 0.8479 64 3.08648 64 5.8479V59.8479C64 62.6093 61.7614 64.8479 59 64.8479H5C2.23858 64.8479 0 62.6093 0 59.8479V5.8479Z" fill="white"/>
<circle cx="32.0002" cy="28.6277" r="2.94431" fill="white" stroke="#2B2DBA" stroke-width="1.5"/>
<circle cx="37.0803" cy="28.6277" r="2.94431" fill="white" stroke="#2B2DBA" stroke-width="1.5"/>
<circle cx="26.7785" cy="28.6277" r="2.94431" fill="white" stroke="#2B2DBA" stroke-width="1.5"/>
<mask id="path-5-inside-1_490:4486" fill="white">
<path fill-rule="evenodd" clip-rule="evenodd" d="M38.6053 39.6891C38.6066 39.6351 38.6073 39.581 38.6073 39.5268C38.6073 35.8777 35.6491 32.9196 32.0001 32.9196C28.351 32.9196 25.3928 35.8777 25.3928 39.5268C25.3928 39.581 25.3935 39.6351 25.3948 39.6891H38.6053Z"/>
</mask>
<path fill-rule="evenodd" clip-rule="evenodd" d="M38.6053 39.6891C38.6066 39.6351 38.6073 39.581 38.6073 39.5268C38.6073 35.8777 35.6491 32.9196 32.0001 32.9196C28.351 32.9196 25.3928 35.8777 25.3928 39.5268C25.3928 39.581 25.3935 39.6351 25.3948 39.6891H38.6053Z" fill="white"/>
<path d="M38.6053 39.6891V41.1891H40.0696L40.1049 39.7253L38.6053 39.6891ZM25.3948 39.6891L23.8952 39.7252L23.9305 41.1891H25.3948V39.6891ZM37.1073 39.5268C37.1073 39.569 37.1068 39.611 37.1058 39.6529L40.1049 39.7253C40.1065 39.6592 40.1073 39.5931 40.1073 39.5268H37.1073ZM32.0001 34.4196C34.8207 34.4196 37.1073 36.7061 37.1073 39.5268H40.1073C40.1073 35.0493 36.4776 31.4196 32.0001 31.4196V34.4196ZM26.8928 39.5268C26.8928 36.7061 29.1794 34.4196 32.0001 34.4196V31.4196C27.5226 31.4196 23.8928 35.0493 23.8928 39.5268H26.8928ZM26.8943 39.6529C26.8933 39.611 26.8928 39.569 26.8928 39.5268H23.8928C23.8928 39.5931 23.8936 39.6593 23.8952 39.7252L26.8943 39.6529ZM25.3948 41.1891H38.6053V38.1891H25.3948V41.1891Z" fill="#2B2DBA" mask="url(#path-5-inside-1_490:4486)"/>
<mask id="path-7-inside-2_490:4486" fill="white">
<path fill-rule="evenodd" clip-rule="evenodd" d="M43.6854 39.6891C43.6867 39.6351 43.6874 39.581 43.6874 39.5268C43.6874 35.8777 40.7292 32.9196 37.0801 32.9196C33.4311 32.9196 30.4729 35.8777 30.4729 39.5268C30.4729 39.581 30.4736 39.6351 30.4749 39.6891H43.6854Z"/>
</mask>
<path fill-rule="evenodd" clip-rule="evenodd" d="M43.6854 39.6891C43.6867 39.6351 43.6874 39.581 43.6874 39.5268C43.6874 35.8777 40.7292 32.9196 37.0801 32.9196C33.4311 32.9196 30.4729 35.8777 30.4729 39.5268C30.4729 39.581 30.4736 39.6351 30.4749 39.6891H43.6854Z" fill="white"/>
<path d="M43.6854 39.6891V41.1891H45.1497L45.185 39.7253L43.6854 39.6891ZM30.4749 39.6891L28.9753 39.7252L29.0106 41.1891H30.4749V39.6891ZM42.1874 39.5268C42.1874 39.569 42.1869 39.611 42.1859 39.6529L45.185 39.7253C45.1866 39.6592 45.1874 39.5931 45.1874 39.5268H42.1874ZM37.0801 34.4196C39.9008 34.4196 42.1874 36.7061 42.1874 39.5268H45.1874C45.1874 35.0493 41.5576 31.4196 37.0801 31.4196V34.4196ZM31.9729 39.5268C31.9729 36.7061 34.2595 34.4196 37.0801 34.4196V31.4196C32.6026 31.4196 28.9729 35.0493 28.9729 39.5268H31.9729ZM31.9744 39.6529C31.9734 39.611 31.9729 39.569 31.9729 39.5268H28.9729C28.9729 39.5931 28.9737 39.6593 28.9753 39.7252L31.9744 39.6529ZM30.4749 41.1891H43.6854V38.1891H30.4749V41.1891Z" fill="#2B2DBA" mask="url(#path-7-inside-2_490:4486)"/>
<mask id="path-9-inside-3_490:4486" fill="white">
<path fill-rule="evenodd" clip-rule="evenodd" d="M33.3837 39.6891C33.385 39.6351 33.3856 39.581 33.3856 39.5268C33.3856 35.8777 30.4275 32.9196 26.7784 32.9196C23.1293 32.9196 20.1711 35.8777 20.1711 39.5268C20.1711 39.581 20.1718 39.6351 20.1731 39.6891H33.3837Z"/>
</mask>
<path fill-rule="evenodd" clip-rule="evenodd" d="M33.3837 39.6891C33.385 39.6351 33.3856 39.581 33.3856 39.5268C33.3856 35.8777 30.4275 32.9196 26.7784 32.9196C23.1293 32.9196 20.1711 35.8777 20.1711 39.5268C20.1711 39.581 20.1718 39.6351 20.1731 39.6891H33.3837Z" fill="white"/>
<path d="M33.3837 39.6891V41.1891H34.8479L34.8832 39.7253L33.3837 39.6891ZM20.1731 39.6891L18.6735 39.7252L18.7088 41.1891H20.1731V39.6891ZM31.8856 39.5268C31.8856 39.569 31.8851 39.611 31.8841 39.6529L34.8832 39.7253C34.8848 39.6592 34.8856 39.5931 34.8856 39.5268H31.8856ZM26.7784 34.4196C29.599 34.4196 31.8856 36.7061 31.8856 39.5268H34.8856C34.8856 35.0493 31.2559 31.4196 26.7784 31.4196V34.4196ZM21.6711 39.5268C21.6711 36.7061 23.9577 34.4196 26.7784 34.4196V31.4196C22.3009 31.4196 18.6711 35.0493 18.6711 39.5268H21.6711ZM21.6727 39.6529C21.6717 39.611 21.6711 39.569 21.6711 39.5268H18.6711C18.6711 39.5931 18.6719 39.6593 18.6735 39.7252L21.6727 39.6529ZM20.1731 41.1891H33.3837V38.1891H20.1731V41.1891Z" fill="#2B2DBA" mask="url(#path-9-inside-3_490:4486)"/>
</svg>
