<svg width="75" height="31" viewBox="0 0 75 31" fill="none" xmlns="http://www.w3.org/2000/svg">
<path d="M57.1601 9.43869L58.6118 24.0875C58.8171 26.2899 59.6823 27.9852 61.2073 29.1733C62.7323 30.3905 64.5067 30.999 66.5303 30.999C67.938 30.999 69.2724 30.6947 70.5335 30.0862C71.824 29.4776 72.8651 28.5938 73.6569 27.4346C74.4488 26.2755 74.8447 24.899 74.8447 23.3051V0.13645H66.7942V19.4799L66.9702 24.5222L66.5743 24.5657L65.8704 19.6538L64.5507 9.78644C64.2867 7.58404 63.4215 5.87428 61.9552 4.65717C60.4888 3.44005 58.8171 2.83149 56.9401 2.83149C55.0631 2.83149 53.3914 3.44005 51.9251 4.65717C50.488 5.87428 49.6228 7.58404 49.3296 9.78644L48.0538 19.6538L47.3059 24.5657L46.91 24.5222L47.13 19.4799V0.13645H39.0795V23.3051C39.0795 24.899 39.4754 26.2755 40.2673 27.4346C41.0591 28.5938 42.0856 29.4776 43.3467 30.0862C44.6078 30.6947 45.9422 30.999 47.3499 30.999C49.3735 30.999 51.1479 30.3905 52.6729 29.1733C54.198 27.9852 55.0778 26.2899 55.3124 24.0875L56.7641 9.43869H57.1601Z" fill="#2B2DBA"/>
<path d="M17.6846 21.6971L16.2328 7.0482C16.0275 4.8458 15.1624 3.15053 13.6373 1.96239C12.1123 0.745275 10.338 0.136717 8.31434 0.136716C6.90661 0.136716 5.5722 0.440996 4.3111 1.04955C3.02068 1.65811 1.97955 2.54197 1.18769 3.70113C0.395843 4.86029 -8.06419e-05 6.23678 -8.07813e-05 7.83063L-8.28067e-05 30.9993L8.05039 30.9993L8.05039 11.6558L7.87443 6.61351L8.27035 6.57004L8.97422 11.482L10.294 21.3493C10.5579 23.5517 11.4231 25.2615 12.8895 26.4786C14.3559 27.6957 16.0275 28.3043 17.9045 28.3043C19.7815 28.3043 21.4532 27.6957 22.9196 26.4786C24.3566 25.2615 25.2218 23.5517 25.5151 21.3493L26.7908 11.482L27.5387 6.57004L27.9346 6.61351L27.7147 11.6559L27.7147 30.9993L35.7651 30.9993L35.7651 7.83063C35.7651 6.23679 35.3692 4.86029 34.5774 3.70113C33.7855 2.54197 32.759 1.65811 31.4979 1.04956C30.2369 0.440998 28.9024 0.136718 27.4947 0.136718C25.4711 0.136718 23.6968 0.745276 22.1717 1.96239C20.6467 3.15053 19.7668 4.8458 19.5322 7.0482L18.0805 21.6971L17.6846 21.6971Z" fill="#FF367E"/>
</svg>
