<svg width="64" height="64" viewBox="0 0 64 64" fill="none" xmlns="http://www.w3.org/2000/svg">
<circle cx="32" cy="27.7798" r="2.94431" stroke="#2B2DBA" stroke-width="1.5"/>
<circle cx="37.0801" cy="27.7798" r="2.94431" stroke="#2B2DBA" stroke-width="1.5"/>
<circle cx="26.7783" cy="27.7798" r="2.94431" stroke="#2B2DBA" stroke-width="1.5"/>
<mask id="path-5-inside-1_436:4748" fill="white">
<path fill-rule="evenodd" clip-rule="evenodd" d="M38.6051 38.8411C38.6064 38.7871 38.6071 38.733 38.6071 38.6788C38.6071 35.0297 35.6489 32.0715 31.9998 32.0715C28.3507 32.0715 25.3926 35.0297 25.3926 38.6788C25.3926 38.733 25.3932 38.7871 25.3945 38.8411H38.6051Z"/>
</mask>
<path d="M38.6051 38.8411V40.3411H40.0694L40.1047 38.8772L38.6051 38.8411ZM25.3945 38.8411L23.895 38.8772L23.9303 40.3411H25.3945V38.8411ZM37.1071 38.6788C37.1071 38.721 37.1065 38.763 37.1055 38.8049L40.1047 38.8772C40.1063 38.8112 40.1071 38.7451 40.1071 38.6788H37.1071ZM31.9998 33.5715C34.8205 33.5715 37.1071 35.8581 37.1071 38.6788H40.1071C40.1071 34.2013 36.4773 30.5715 31.9998 30.5715V33.5715ZM26.8926 38.6788C26.8926 35.8581 29.1792 33.5715 31.9998 33.5715V30.5715C27.5223 30.5715 23.8926 34.2013 23.8926 38.6788H26.8926ZM26.8941 38.8049C26.8931 38.763 26.8926 38.721 26.8926 38.6788H23.8926C23.8926 38.7451 23.8934 38.8112 23.895 38.8772L26.8941 38.8049ZM25.3945 40.3411H38.6051V37.3411H25.3945V40.3411Z" fill="#2B2DBA" mask="url(#path-5-inside-1_436:4748)"/>
<mask id="path-7-inside-2_436:4748" fill="white">
<path fill-rule="evenodd" clip-rule="evenodd" d="M43.6852 38.8413C43.6865 38.7874 43.6871 38.7333 43.6871 38.679C43.6871 35.0299 40.729 32.0718 37.0799 32.0718C33.4308 32.0718 30.4727 35.0299 30.4727 38.679C30.4727 38.7333 30.4733 38.7874 30.4746 38.8413H43.6852Z"/>
</mask>
<path d="M43.6852 38.8413V40.3413H45.1494L45.1847 38.8775L43.6852 38.8413ZM30.4746 38.8413L28.975 38.8775L29.0103 40.3413H30.4746V38.8413ZM42.1871 38.679C42.1871 38.7212 42.1866 38.7633 42.1856 38.8051L45.1847 38.8775C45.1863 38.8115 45.1871 38.7453 45.1871 38.679H42.1871ZM37.0799 33.5718C39.9005 33.5718 42.1871 35.8584 42.1871 38.679H45.1871C45.1871 34.2015 41.5574 30.5718 37.0799 30.5718V33.5718ZM31.9727 38.679C31.9727 35.8584 34.2592 33.5718 37.0799 33.5718V30.5718C32.6024 30.5718 28.9727 34.2015 28.9727 38.679H31.9727ZM31.9742 38.8052C31.9732 38.7633 31.9727 38.7212 31.9727 38.679H28.9727C28.9727 38.7453 28.9735 38.8115 28.975 38.8775L31.9742 38.8052ZM30.4746 40.3413H43.6852V37.3413H30.4746V40.3413Z" fill="#2B2DBA" mask="url(#path-7-inside-2_436:4748)"/>
<mask id="path-9-inside-3_436:4748" fill="white">
<path fill-rule="evenodd" clip-rule="evenodd" d="M33.3834 38.8413C33.3847 38.7874 33.3854 38.7333 33.3854 38.679C33.3854 35.0299 30.4272 32.0718 26.7781 32.0718C23.1291 32.0718 20.1709 35.0299 20.1709 38.679C20.1709 38.7333 20.1716 38.7874 20.1729 38.8413H33.3834Z"/>
</mask>
<path d="M33.3834 38.8413V40.3413H34.8477L34.883 38.8775L33.3834 38.8413ZM20.1729 38.8413L18.6733 38.8775L18.7086 40.3413H20.1729V38.8413ZM31.8854 38.679C31.8854 38.7212 31.8849 38.7633 31.8839 38.8051L34.883 38.8775C34.8846 38.8115 34.8854 38.7453 34.8854 38.679H31.8854ZM26.7781 33.5718C29.5988 33.5718 31.8854 35.8584 31.8854 38.679H34.8854C34.8854 34.2015 31.2556 30.5718 26.7781 30.5718V33.5718ZM21.6709 38.679C21.6709 35.8584 23.9575 33.5718 26.7781 33.5718V30.5718C22.3006 30.5718 18.6709 34.2015 18.6709 38.679H21.6709ZM21.6724 38.8052C21.6714 38.7633 21.6709 38.7212 21.6709 38.679H18.6709C18.6709 38.7453 18.6717 38.8115 18.6733 38.8775L21.6724 38.8052ZM20.1729 40.3413H33.3834V37.3413H20.1729V40.3413Z" fill="#2B2DBA" mask="url(#path-9-inside-3_436:4748)"/>
</svg>
